<svg width="18" height="17" viewBox="0 0 18 17" fill="none" xmlns="http://www.w3.org/2000/svg">
<g clip-path="url(#clip0)">
<path d="M13.9146 0.927695C13.3249 1.05994 12.7325 1.19281 12.5121 1.55688L10.8065 4.7625L1.64828 6.81634L1.27723 7.84059L8.28531 8.46568L7.09628 11.2408L4.43851 11.8368L3.77123 12.9275L5.68861 13.1239L5.90725 14.0159C6.00521 14.3321 6.34902 14.5432 6.64248 14.4774L7.5284 14.2787L8.55537 15.9305L9.22266 14.8398L8.56673 12.1638L10.491 9.85016L14.1627 15.9287L14.9031 15.1363L12.6435 5.91794L14.7185 2.94416C14.9416 2.57946 14.7961 1.98572 14.6499 1.38919C14.5774 1.09371 14.2081 0.861883 13.9146 0.927695Z" fill="#1D2E5B"/>
</g>
<defs>
<clipPath id="clip0">
<rect width="16.858" height="16.125" fill="white" transform="translate(0.329559 0.0625)"/>
</clipPath>
</defs>
</svg>
