<svg width="13" height="13" viewBox="0 0 13 13" fill="none" xmlns="http://www.w3.org/2000/svg">
<g clip-path="url(#clip0)">
<path d="M3.25536 1.47406C4.94813 1.47406 6.31919 2.82156 6.31919 4.48385C6.31919 2.82156 7.69025 1.47406 9.38302 1.47406C11.0758 1.47406 12.4469 2.82156 12.4469 4.48385C12.4469 6.98919 9.96974 7.87293 6.61945 11.8609C6.58256 11.9047 6.53658 11.9399 6.48472 11.9641C6.43286 11.9882 6.37637 12.0007 6.31919 12.0007C6.26201 12.0007 6.20552 11.9882 6.15366 11.9641C6.1018 11.9399 6.05582 11.9047 6.01893 11.8609C2.66864 7.87293 0.191528 6.98919 0.191528 4.48385C0.191528 2.82156 1.56259 1.47406 3.25536 1.47406Z" fill="#F02323"/>
</g>
<defs>
<clipPath id="clip0">
<rect width="12.2553" height="12.2849" fill="white" transform="translate(0.191528 0.706238)"/>
</clipPath>
</defs>
</svg>
