<svg width="47" height="50" viewBox="0 0 47 50" fill="none" xmlns="http://www.w3.org/2000/svg">
<path fill-rule="evenodd" clip-rule="evenodd" d="M37.2786 32.9327L28.6178 25L37.2786 17.0673L36.0976 15.8053L23.5 27.3438L10.9024 15.8053L9.72137 17.0673L18.3822 25L9.72137 32.9327L10.9024 34.1947L19.6617 26.1719L23.5 29.6875L27.3383 26.1719L36.0976 34.1947L37.2786 32.9327ZM8.15193 12.5C6.5339 12.5 5.22223 13.8977 5.22223 15.6157V34.3843C5.22223 36.105 6.52326 37.5 8.15193 37.5H38.8481C40.4661 37.5 41.7778 36.1023 41.7778 34.3843V15.6157C41.7778 13.895 40.4768 12.5 38.8481 12.5H8.15193Z" fill="#FFD74B"/>
</svg>
