<svg width="12" height="13" viewBox="0 0 12 13" fill="none" xmlns="http://www.w3.org/2000/svg">
<g clip-path="url(#clip0)">
<g opacity="0.5">
<path fill-rule="evenodd" clip-rule="evenodd" d="M6 5.66465L6.6705 4.25538C6.837 3.90641 7.12575 3.40462 7.5345 2.99894C7.9365 2.59955 8.418 2.32778 9 2.32778C10.257 2.32778 11.25 3.37233 11.25 4.62799C11.25 5.58194 10.8345 6.25546 9.849 7.28267C9.59625 7.54578 9.30825 7.83015 8.9895 8.14367C8.1585 8.96293 7.125 9.98226 6 11.3451C4.875 9.98226 3.8415 8.96293 3.0105 8.14367C2.69175 7.83015 2.403 7.54499 2.151 7.28267C1.1655 6.25546 0.75 5.58194 0.75 4.62799C0.75 3.37233 1.743 2.32778 3 2.32778C3.582 2.32778 4.0635 2.59955 4.4655 2.99894C4.87425 3.40462 5.163 3.90641 5.3295 4.25538L6 5.66465ZM6.294 12.1966C6.25788 12.2415 6.21286 12.2777 6.16209 12.3024C6.11131 12.3272 6.05599 12.34 6 12.34C5.94401 12.34 5.8887 12.3272 5.83792 12.3024C5.78714 12.2777 5.74212 12.2415 5.706 12.1966C4.50525 10.6983 3.4185 9.62699 2.52375 8.74551C0.975 7.21808 0 6.25782 0 4.62799C0 2.92253 1.3425 1.54004 3 1.54004C4.2 1.54004 5.03925 2.36717 5.553 3.12182C5.748 3.40935 5.8965 3.68585 6 3.90326C6.12975 3.63116 6.27918 3.36991 6.447 3.12182C6.96075 2.36638 7.8 1.54004 9 1.54004C10.6575 1.54004 12 2.92253 12 4.62799C12 6.25782 11.025 7.21808 9.47625 8.74551C8.5815 9.62778 7.49475 10.6991 6.294 12.1958V12.1966Z" fill="#192144"/>
</g>
</g>
<defs>
<clipPath id="clip0">
<rect width="12" height="12" fill="white" transform="translate(0 0.790039)"/>
</clipPath>
</defs>
</svg>
