<svg width="24" height="24" viewBox="0 0 24 24" fill="none" xmlns="http://www.w3.org/2000/svg">
<path d="M17.2802 2.40094C18.4252 2.40347 19.5225 2.85943 20.3321 3.66904C21.1417 4.47865 21.5977 5.57598 21.6002 6.72094V17.2809C21.5977 18.4259 21.1417 19.5232 20.3321 20.3328C19.5225 21.1424 18.4252 21.5984 17.2802 21.6009H6.7202C5.57691 21.5959 4.48204 21.1388 3.6745 20.3295C2.86696 19.5201 2.41233 18.4242 2.4098 17.2809V6.72094C2.41233 5.57764 2.86696 4.48175 3.6745 3.67241C4.48204 2.86308 5.57691 2.406 6.7202 2.40094H17.2802ZM17.2802 0.960938H6.7202C5.19256 0.960938 3.72748 1.56779 2.64727 2.648C1.56706 3.72821 0.960205 5.19329 0.960205 6.72094L0.960205 17.2809C0.960205 18.8086 1.56706 20.2737 2.64727 21.3539C3.72748 22.4341 5.19256 23.0409 6.7202 23.0409H17.2802C18.8078 23.0409 20.2729 22.4341 21.3531 21.3539C22.4333 20.2737 23.0402 18.8086 23.0402 17.2809V6.72094C23.0402 5.19329 22.4333 3.72821 21.3531 2.648C20.2729 1.56779 18.8078 0.960938 17.2802 0.960938V0.960938Z" fill="#192144"/>
<path d="M12.0093 7.75642C12.8504 7.75642 13.6727 8.00584 14.372 8.47314C15.0714 8.94045 15.6165 9.60464 15.9384 10.3817C16.2603 11.1588 16.3445 12.0139 16.1804 12.8389C16.0163 13.6639 15.6112 14.4216 15.0165 15.0164C14.4217 15.6112 13.6639 16.0162 12.839 16.1803C12.014 16.3444 11.1589 16.2602 10.3818 15.9383C9.60472 15.6164 8.94052 15.0713 8.47321 14.3719C8.00591 13.6726 7.75649 12.8503 7.75649 12.0092C7.75522 11.4504 7.86436 10.8968 8.07764 10.3802C8.29091 9.8637 8.60412 9.39437 8.99928 8.99921C9.39444 8.60405 9.86377 8.29084 10.3803 8.07756C10.8969 7.86429 11.4504 7.75515 12.0093 7.75642ZM12.0093 6.31641C10.883 6.31451 9.78137 6.64678 8.84393 7.27115C7.90649 7.89553 7.17533 8.78396 6.74299 9.82402C6.31064 10.8641 6.19653 12.009 6.4151 13.1139C6.63368 14.2189 7.17511 15.2341 7.97088 16.0312C8.76664 16.8283 9.78099 17.3715 10.8855 17.5919C11.9901 17.8124 13.1352 17.7002 14.176 17.2696C15.2168 16.839 16.1065 16.1093 16.7324 15.173C17.3584 14.2366 17.6925 13.1356 17.6925 12.0092C17.6938 11.2621 17.5477 10.522 17.2626 9.8314C16.9776 9.14077 16.5592 8.51313 16.0313 7.98438C15.5035 7.45563 14.8765 7.03615 14.1864 6.74994C13.4962 6.46373 12.7564 6.31641 12.0093 6.31641Z" fill="#192144"/>
<path d="M17.9043 7.41264C18.6148 7.41264 19.1907 6.8367 19.1907 6.12624C19.1907 5.41578 18.6148 4.83984 17.9043 4.83984C17.1939 4.83984 16.6179 5.41578 16.6179 6.12624C16.6179 6.8367 17.1939 7.41264 17.9043 7.41264Z" fill="#192144"/>
</svg>
