<?xml version="1.0" encoding="UTF-8"?><!DOCTYPE svg PUBLIC "-//W3C//DTD SVG 1.1//EN" "http://www.w3.org/Graphics/SVG/1.1/DTD/svg11.dtd"><svg xmlns="http://www.w3.org/2000/svg" xmlns:xlink="http://www.w3.org/1999/xlink"><defs>
<clipPath id="clip0">
<rect width="12.2553" height="12.2849" fill="white" transform="translate(0.191528 0.706238)"/>
</clipPath>

<clipPath id="clip0">
<rect width="12" height="12" fill="white" transform="translate(0 0.790039)"/>
</clipPath>
<clipPath id="clip0"><path fill="#fff" transform="translate(0 .96)" d="M0 0h20.826v21.12H0z"/></clipPath>
<clipPath id="clip0">
<rect width="16.858" height="16.125" fill="white" transform="translate(0.329559 0.0625)"/>
</clipPath>
</defs><symbol id="filter-expand-dots" viewBox="0 0 17 3">
<circle cx="1.5" cy="1.5" r="1.5" fill="#192144"/>
<circle cx="8.5" cy="1.5" r="1.5" fill="#192144"/>
<circle cx="15.5" cy="1.5" r="1.5" fill="#192144"/>
</symbol><symbol id="htmlacademy" viewBox="0 0 60 60"><path fill="#2E368F" d="M30.2 5h-.2l-19.7 2.1v36.2l19.7 11.7 19.7-11.7v-36.2l-19.5-2.1zm17 36.8l-17.2 10.2-17.2-10.2v-14.8l17.1 10.2v1.8l-11.7-7v1.8l11.8 7.1v1.9l-11.8-7v1.8l11.8 7 11.9-7.1v-7.6l5.3-3.2v15.1zm-.1-17l-4.7 2.8-2.2 1.3-10.3-6.1v1.8l8.8 5.3h-.1l-.2.1-1.3.7-7.3-4.3v1.8l5.8 3.4-1.4.9-4.3-2.6v1.8l2.9 1.7-2.9 1.7-17-10.1 17-10.2 17.2 10zm.1-1.8l-17.3-10.2-17.1 10.2v-13.6l17.2-1.8 17.2 1.8v13.6z"/></symbol><symbol id="icon-arrow-button-active" viewBox="0 0 12 14">
<path opacity="0.3" d="M11.3846 7L0.134644 13.4952L0.134644 0.504809L11.3846 7Z" fill="white"/>
</symbol><symbol id="icon-arrow-button-hover" viewBox="0 0 12 14">
<path d="M11.3846 7L0.134644 13.4952L0.134644 0.504809L11.3846 7Z" fill="white"/>
</symbol><symbol id="icon-arrow-button" viewBox="0 0 11 13">
<path d="M10.0698 6.1626L0.157238 12.2248L0.157238 0.10042L10.0698 6.1626Z" fill="#1D2E5B"/>
</symbol><symbol id="icon-arrow-close-menu" viewBox="0 0 10 5">
<path d="M5 0L9.33013 4.5H0.669873L5 0Z" fill="#192144"/>
</symbol><symbol id="icon-arrow-open-menu" viewBox="0 0 10 5">
<path d="M5 5L0.669872 0.5L9.33013 0.5L5 5Z" fill="#192144"/>
</symbol><symbol id="icon-arrow" viewBox="0 0 14 21">
<g opacity="0.3">
<path d="M3.06949 19.3693C3.16815 19.481 3.28536 19.5695 3.41439 19.63C3.54343 19.6904 3.68176 19.7216 3.82146 19.7216C3.96117 19.7216 4.0995 19.6904 4.22853 19.63C4.35757 19.5695 4.47477 19.481 4.57344 19.3693L11.6343 11.398C11.7131 11.3092 11.7756 11.2038 11.8182 11.0878C11.8609 10.9717 11.8828 10.8473 11.8828 10.7217C11.8828 10.5961 11.8609 10.4717 11.8182 10.3556C11.7756 10.2396 11.7131 10.1342 11.6343 10.0454L4.57344 2.07408C4.15709 1.60405 3.48584 1.60405 3.06949 2.07408C2.65314 2.54411 3.32374 3.3591 3.74009 3.82913L9.82453 10.7217L3.41439 17.972C3.00654 18.4324 2.65314 18.9089 3.06949 19.3693Z" fill="black"/>
</g>
</symbol><symbol id="icon-bus" viewBox="0 0 18 21">
<path d="M4.34046 13.9485C4.34046 13.5699 4.20185 13.2467 3.92462 12.9788C3.64739 12.711 3.31288 12.5771 2.92106 12.5771C2.52925 12.5771 2.19473 12.711 1.91751 12.9788C1.64028 13.2467 1.50167 13.5699 1.50167 13.9485C1.50167 14.3271 1.64028 14.6503 1.91751 14.9181C2.19473 15.186 2.52925 15.3199 2.92106 15.3199C3.31288 15.3199 3.64739 15.186 3.92462 14.9181C4.20185 14.6503 4.34046 14.3271 4.34046 13.9485ZM15.6956 13.9485C15.6956 13.5699 15.557 13.2467 15.2798 12.9788C15.0025 12.711 14.668 12.5771 14.2762 12.5771C13.8844 12.5771 13.5499 12.711 13.2727 12.9788C12.9954 13.2467 12.8568 13.5699 12.8568 13.9485C12.8568 14.3271 12.9954 14.6503 13.2727 14.9181C13.5499 15.186 13.8844 15.3199 14.2762 15.3199C14.668 15.3199 15.0025 15.186 15.2798 14.9181C15.557 14.6503 15.6956 14.3271 15.6956 13.9485ZM15.1855 9.70563L14.3871 5.59135C14.3501 5.42706 14.267 5.29313 14.1376 5.18956C14.0082 5.08599 13.8585 5.0342 13.6885 5.0342H3.50878C3.33875 5.0342 3.18905 5.08599 3.05968 5.18956C2.9303 5.29313 2.84714 5.42706 2.81017 5.59135L2.01176 9.70563C1.9748 9.91992 2.02655 10.1092 2.16701 10.2735C2.30747 10.4378 2.48859 10.5199 2.71037 10.5199H14.4869C14.7087 10.5199 14.8898 10.4378 15.0303 10.2735C15.1707 10.1092 15.2225 9.91992 15.1855 9.70563ZM12.6794 3.14849C12.6794 3.00563 12.6276 2.88421 12.5242 2.78421C12.4207 2.68421 12.295 2.63421 12.1471 2.63421H5.05015C4.9023 2.63421 4.77663 2.68421 4.67313 2.78421C4.56963 2.88421 4.51788 3.00563 4.51788 3.14849C4.51788 3.29135 4.56963 3.41278 4.67313 3.51278C4.77663 3.61278 4.9023 3.66278 5.05015 3.66278H12.1471C12.295 3.66278 12.4207 3.61278 12.5242 3.51278C12.6276 3.41278 12.6794 3.29135 12.6794 3.14849ZM17.115 10.9163V17.3771H15.6956V18.7485C15.6956 19.1271 15.557 19.4503 15.2798 19.7181C15.0025 19.986 14.668 20.1199 14.2762 20.1199C13.8844 20.1199 13.5499 19.986 13.2727 19.7181C12.9954 19.4503 12.8568 19.1271 12.8568 18.7485V17.3771H4.34046V18.7485C4.34046 19.1271 4.20185 19.4503 3.92462 19.7181C3.64739 19.986 3.31288 20.1199 2.92106 20.1199C2.52925 20.1199 2.19473 19.986 1.91751 19.7181C1.64028 19.4503 1.50167 19.1271 1.50167 18.7485V17.3771H0.0822754V10.9163C0.0822754 10.1163 0.174684 9.31992 0.359501 8.52706L1.50167 3.66278C1.5682 3.10563 1.9286 2.61635 2.58285 2.19492C3.2371 1.77349 4.08726 1.45564 5.13332 1.24135C6.17939 1.02706 7.33449 0.919922 8.59864 0.919922C9.86279 0.919922 11.0179 1.02706 12.064 1.24135C13.11 1.45564 13.9602 1.77349 14.6144 2.19492C15.2687 2.61635 15.6291 3.10563 15.6956 3.66278L16.86 8.52706C17.03 9.25563 17.115 10.0521 17.115 10.9163Z" fill="#1D2E5B"/>
</symbol><symbol id="icon-businessman" viewBox="0 0 28 28">
<path d="M23.3758 23.2418V19.8933C23.3758 18.9558 23.2418 18.0182 22.7061 17.0806C22.1703 16.143 21.5006 15.3394 20.5631 14.8036C19.6255 14.1339 17.6164 14 16.6788 14L14.5358 16.277L15.3394 18.0182V22.0364L14 23.5097L12.6606 22.0364V18.0182L13.5982 16.277L11.3212 14C10.2497 14 8.24063 14.1339 7.30306 14.8036C6.36548 15.3394 5.82972 16.143 5.29396 17.0806C4.75821 18.0182 4.62427 18.8218 4.62427 19.8933V23.2418C4.62427 23.2418 8.10669 24.7151 14 24.7151C19.8934 24.7151 23.3758 23.2418 23.3758 23.2418Z" fill="#132576"/>
<path d="M14 3.41895C11.4551 3.41895 9.98178 5.82985 10.3836 8.50864C10.7854 11.1874 12.1248 13.0626 14 13.0626C15.8751 13.0626 17.2145 11.1874 17.6163 8.50864C18.0181 5.69592 16.5448 3.41895 14 3.41895Z" fill="#132576"/>
</symbol><symbol id="icon-call" viewBox="0 0 18 18">
<path d="M8.97418 7.42388C8.97418 7.61288 9.12781 7.76138 9.31556 7.76138C9.70474 7.76138 10.0188 8.07526 10.0188 8.45663C10.0188 8.64225 10.1724 8.79413 10.3602 8.79413C10.5479 8.79413 10.7016 8.64225 10.7016 8.45663C10.7016 7.70064 10.0802 7.08638 9.31556 7.08638C9.12781 7.08638 8.97418 7.23826 8.97418 7.42388ZM14.5318 8.79413C14.723 8.79413 14.8732 8.64225 14.8732 8.45663C14.8732 5.42589 12.3811 2.96214 9.31556 2.96214C9.12781 2.96214 8.97418 3.114 8.97418 3.29964C8.97418 3.48526 9.12781 3.63714 9.31556 3.63714C12.0056 3.63714 14.1905 5.80051 14.1905 8.45663C14.1905 8.64225 14.3441 8.79413 14.5318 8.79413Z" fill="#161C35"/>
<path d="M12.1046 8.45663C12.1046 8.64225 12.2582 8.79413 12.446 8.79413C12.6338 8.79413 12.7874 8.64225 12.7874 8.45663C12.7874 6.56326 11.2307 5.02426 9.31554 5.02426C9.12779 5.02426 8.97416 5.17614 8.97416 5.36176C8.97416 5.55076 9.12779 5.69926 9.31554 5.69926C10.8552 5.69926 12.1046 6.93788 12.1046 8.45663ZM9.31554 0.900002C9.12779 0.900002 8.97416 1.05188 8.97416 1.2375C8.97416 1.42314 9.12779 1.575 9.31554 1.575C13.1561 1.575 16.2797 4.66314 16.2797 8.45663C16.2797 8.64225 16.4299 8.79413 16.6211 8.79413C16.8088 8.79413 16.9624 8.64225 16.9624 8.45663C16.9624 4.28852 13.5316 0.900002 9.31554 0.900002ZM12.6508 12.0139L12.2036 12.2535C11.4492 12.6619 10.8621 13.7813 9.93104 12.9375L7.5 10.5L5.39993 8.45663C4.34484 7.1235 5.52624 6.80625 5.9393 6.05701L6.18168 5.61827C6.45478 5.11875 6.55377 4.55851 6.47185 3.99825C6.39333 3.43801 6.1373 2.92838 5.72764 2.52338C5.22924 2.03064 4.56696 1.76064 3.86031 1.76064C3.15365 1.76064 2.48796 2.03064 1.98953 2.52338L1.81545 2.69888C0.893721 3.61014 0.787894 5.1795 1.51503 7.1235C2.20119 8.97975 3.58379 10.9913 5.39993 12.7868C8.16851 15.5239 11.2512 17.1 13.4633 17.1C14.3372 17.1 15.078 16.8536 15.6037 16.3339L15.7813 16.1584C16.2763 15.669 16.5528 15.0143 16.5562 14.3089C16.5528 13.6204 16.2694 12.9454 15.7813 12.4628C14.9585 11.6494 13.6715 11.4671 12.6508 12.0139Z" fill="#161C35"/>
</symbol><symbol id="icon-checkbox-active" viewBox="0 0 11 12">
<path d="M3.38679 11.1809L0 7.5V7V6C0 6.04093 0 5.95907 0 6C0 5.78516 6.95735e-05 5.5 6.95735e-05 5.5V4.5L3.37736 7.75615C3.49314 7.87756 3.68161 7.87614 3.79738 7.75474L11.0001 0V2.07271V3C11.0001 3.5 11.0001 3.5 11.0001 3.5L4.80839 10.1208L4.80974 10.1222L3.80681 11.1795C3.69103 11.3009 3.50256 11.3009 3.38679 11.1809Z" fill="#A5A9B9"/>
</symbol><symbol id="icon-checkbox" viewBox="0 0 11 12">
<path d="M3.38679 11.1809L0 7.5V7V6C0 6.04093 0 5.95907 0 6C0 5.78516 6.95735e-05 5.5 6.95735e-05 5.5V4.5L3.37736 7.75615C3.49314 7.87756 3.68161 7.87614 3.79738 7.75474L11.0001 0V2.07271V3C11.0001 3.5 11.0001 3.5 11.0001 3.5L4.80839 10.1208L4.80974 10.1222L3.80681 11.1795C3.69103 11.3009 3.50256 11.3009 3.38679 11.1809Z" fill="#161C35"/>
</symbol><symbol id="icon-close-cross" viewBox="0 0 16 16">
<path d="M14 2L2 14" stroke="#192144" stroke-width="2" stroke-linecap="round" stroke-linejoin="round"/>
<path d="M2 2L14 14" stroke="#192144" stroke-width="2" stroke-linecap="round" stroke-linejoin="round"/>
</symbol><symbol id="icon-facebook" viewBox="0 0 14 28">
<path d="M9.53 27.75H2.71V14.85H0V8.47H2.63C2.43 5.58 2.93 3.47 4.15 2.03C4.73171 1.39087 5.44042 0.8802 6.23079 0.530647C7.02116 0.181094 7.87578 0.000357734 8.74 0L13.52 0V6.15H9.76C9.53848 6.90214 9.4538 7.68794 9.51 8.47H13.51V14.85H9.51L9.53 27.75ZM4.22 26.25H8V13.35H12V10H8V9.24C8 7.24 8 5.45 9 4.78L9.19 4.65H12V1.5H8.78C8.12565 1.49154 7.47682 1.62071 6.87559 1.87911C6.27436 2.13752 5.73416 2.5194 5.29 3C4.29 4.23 3.88 6.29 4.19 9.14L4.29 9.97H1.5V13.35H4.22V26.25Z" fill="#192144"/>
</symbol><symbol id="icon-filter-decoration" viewBox="0 0 15 10">
<rect x="7.17395" width="7.82609" height="2" fill="#192144"/>
<rect x="7.17383" y="8" width="7.82609" height="2" fill="#192144"/>
<rect y="4" width="7.82609" height="2" fill="#192144"/>
<rect x="3.91309" width="1.95652" height="2" fill="#192144"/>
<rect x="3.91309" y="8" width="1.95652" height="2" fill="#192144"/>
<rect x="9.13037" y="4" width="1.95652" height="2" fill="#192144"/>
<rect width="2.6087" height="2" fill="#192144"/>
<rect y="8" width="2.6087" height="2" fill="#192144"/>
<rect x="12.3914" y="4" width="2.6087" height="2" fill="#192144"/>
</symbol><symbol id="icon-heart-fill" viewBox="0 0 13 13">
<g clip-path="url(#clip0)">
<path d="M3.25536 1.47406C4.94813 1.47406 6.31919 2.82156 6.31919 4.48385C6.31919 2.82156 7.69025 1.47406 9.38302 1.47406C11.0758 1.47406 12.4469 2.82156 12.4469 4.48385C12.4469 6.98919 9.96974 7.87293 6.61945 11.8609C6.58256 11.9047 6.53658 11.9399 6.48472 11.9641C6.43286 11.9882 6.37637 12.0007 6.31919 12.0007C6.26201 12.0007 6.20552 11.9882 6.15366 11.9641C6.1018 11.9399 6.05582 11.9047 6.01893 11.8609C2.66864 7.87293 0.191528 6.98919 0.191528 4.48385C0.191528 2.82156 1.56259 1.47406 3.25536 1.47406Z" fill="#F02323"/>
</g>

</symbol><symbol id="icon-heart" viewBox="0 0 12 13">
<g clip-path="url(#clip0)">
<g opacity="0.5">
<path fill-rule="evenodd" clip-rule="evenodd" d="M6 5.66465L6.6705 4.25538C6.837 3.90641 7.12575 3.40462 7.5345 2.99894C7.9365 2.59955 8.418 2.32778 9 2.32778C10.257 2.32778 11.25 3.37233 11.25 4.62799C11.25 5.58194 10.8345 6.25546 9.849 7.28267C9.59625 7.54578 9.30825 7.83015 8.9895 8.14367C8.1585 8.96293 7.125 9.98226 6 11.3451C4.875 9.98226 3.8415 8.96293 3.0105 8.14367C2.69175 7.83015 2.403 7.54499 2.151 7.28267C1.1655 6.25546 0.75 5.58194 0.75 4.62799C0.75 3.37233 1.743 2.32778 3 2.32778C3.582 2.32778 4.0635 2.59955 4.4655 2.99894C4.87425 3.40462 5.163 3.90641 5.3295 4.25538L6 5.66465ZM6.294 12.1966C6.25788 12.2415 6.21286 12.2777 6.16209 12.3024C6.11131 12.3272 6.05599 12.34 6 12.34C5.94401 12.34 5.8887 12.3272 5.83792 12.3024C5.78714 12.2777 5.74212 12.2415 5.706 12.1966C4.50525 10.6983 3.4185 9.62699 2.52375 8.74551C0.975 7.21808 0 6.25782 0 4.62799C0 2.92253 1.3425 1.54004 3 1.54004C4.2 1.54004 5.03925 2.36717 5.553 3.12182C5.748 3.40935 5.8965 3.68585 6 3.90326C6.12975 3.63116 6.27918 3.36991 6.447 3.12182C6.96075 2.36638 7.8 1.54004 9 1.54004C10.6575 1.54004 12 2.92253 12 4.62799C12 6.25782 11.025 7.21808 9.47625 8.74551C8.5815 9.62778 7.49475 10.6991 6.294 12.1958V12.1966Z" fill="#192144"/>
</g>
</g>

</symbol><symbol id="icon-instagram" viewBox="0 0 24 24">
<path d="M17.2802 2.40094C18.4252 2.40347 19.5225 2.85943 20.3321 3.66904C21.1417 4.47865 21.5977 5.57598 21.6002 6.72094V17.2809C21.5977 18.4259 21.1417 19.5232 20.3321 20.3328C19.5225 21.1424 18.4252 21.5984 17.2802 21.6009H6.7202C5.57691 21.5959 4.48204 21.1388 3.6745 20.3295C2.86696 19.5201 2.41233 18.4242 2.4098 17.2809V6.72094C2.41233 5.57764 2.86696 4.48175 3.6745 3.67241C4.48204 2.86308 5.57691 2.406 6.7202 2.40094H17.2802ZM17.2802 0.960938H6.7202C5.19256 0.960938 3.72748 1.56779 2.64727 2.648C1.56706 3.72821 0.960205 5.19329 0.960205 6.72094L0.960205 17.2809C0.960205 18.8086 1.56706 20.2737 2.64727 21.3539C3.72748 22.4341 5.19256 23.0409 6.7202 23.0409H17.2802C18.8078 23.0409 20.2729 22.4341 21.3531 21.3539C22.4333 20.2737 23.0402 18.8086 23.0402 17.2809V6.72094C23.0402 5.19329 22.4333 3.72821 21.3531 2.648C20.2729 1.56779 18.8078 0.960938 17.2802 0.960938V0.960938Z" fill="#192144"/>
<path d="M12.0093 7.75642C12.8504 7.75642 13.6727 8.00584 14.372 8.47314C15.0714 8.94045 15.6165 9.60464 15.9384 10.3817C16.2603 11.1588 16.3445 12.0139 16.1804 12.8389C16.0163 13.6639 15.6112 14.4216 15.0165 15.0164C14.4217 15.6112 13.6639 16.0162 12.839 16.1803C12.014 16.3444 11.1589 16.2602 10.3818 15.9383C9.60472 15.6164 8.94052 15.0713 8.47321 14.3719C8.00591 13.6726 7.75649 12.8503 7.75649 12.0092C7.75522 11.4504 7.86436 10.8968 8.07764 10.3802C8.29091 9.8637 8.60412 9.39437 8.99928 8.99921C9.39444 8.60405 9.86377 8.29084 10.3803 8.07756C10.8969 7.86429 11.4504 7.75515 12.0093 7.75642ZM12.0093 6.31641C10.883 6.31451 9.78137 6.64678 8.84393 7.27115C7.90649 7.89553 7.17533 8.78396 6.74299 9.82402C6.31064 10.8641 6.19653 12.009 6.4151 13.1139C6.63368 14.2189 7.17511 15.2341 7.97088 16.0312C8.76664 16.8283 9.78099 17.3715 10.8855 17.5919C11.9901 17.8124 13.1352 17.7002 14.176 17.2696C15.2168 16.839 16.1065 16.1093 16.7324 15.173C17.3584 14.2366 17.6925 13.1356 17.6925 12.0092C17.6938 11.2621 17.5477 10.522 17.2626 9.8314C16.9776 9.14077 16.5592 8.51313 16.0313 7.98438C15.5035 7.45563 14.8765 7.03615 14.1864 6.74994C13.4962 6.46373 12.7564 6.31641 12.0093 6.31641Z" fill="#192144"/>
<path d="M17.9043 7.41264C18.6148 7.41264 19.1907 6.8367 19.1907 6.12624C19.1907 5.41578 18.6148 4.83984 17.9043 4.83984C17.1939 4.83984 16.6179 5.41578 16.6179 6.12624C16.6179 6.8367 17.1939 7.41264 17.9043 7.41264Z" fill="#192144"/>
</symbol><symbol id="icon-mail-small" viewBox="0 0 16 14">
<path d="M1.25913 2.60026L7.25913 6.36066C7.46073 6.48666 7.72153 6.54639 7.98393 6.54639C8.24633 6.54639 8.50713 6.48666 8.70873 6.36066L14.7087 2.60026C15.0999 2.35479 15.4695 1.39999 14.7519 1.39999H1.21673C0.499128 1.39999 0.868728 2.35479 1.25913 2.60026ZM14.8903 4.65639L8.70873 8.41493C8.43673 8.58106 8.24633 8.60066 7.98393 8.60066C7.72153 8.60066 7.53113 8.58106 7.25913 8.41493C6.98713 8.24879 1.55273 4.92519 1.10873 4.65546C0.796728 4.46506 0.799928 4.68813 0.799928 4.85986V11.6667C0.799928 12.0587 1.25273 12.6 1.59993 12.6H14.3999C14.7471 12.6 15.1999 12.0587 15.1999 11.6667V4.86079C15.1999 4.68906 15.2031 4.46599 14.8903 4.65639Z" fill="#161C35"/>
</symbol><symbol id="icon-map-mark" viewBox="0 0 45 45">
<circle cx="22.5" cy="22.5" r="22.5" fill="#121936"/>
<path d="M22.5 12C18.1517 12 14.625 15.5267 14.625 19.875C14.625 24.9334 18.4285 27.1449 19.2692 28.1538C21.2885 30.5769 21.4026 33 22.5 33C23.5974 33 23.7115 30.5769 25.7308 28.1538C26.5715 27.1449 30.375 24.9334 30.375 19.875C30.375 15.5267 26.8483 12 22.5 12ZM22.5 25.125C19.6007 25.125 17.25 22.7743 17.25 19.875C17.25 16.9757 19.6007 14.625 22.5 14.625C25.3993 14.625 27.75 16.9757 27.75 19.875C27.75 22.7743 25.3993 25.125 22.5 25.125ZM22.5 17.25C21.051 17.25 19.875 18.426 19.875 19.875C19.875 21.324 21.051 22.5 22.5 22.5C23.949 22.5 25.125 21.324 25.125 19.875C25.125 18.426 23.949 17.25 22.5 17.25Z" fill="#FFD74B"/>
<ellipse cx="22.5" cy="19.875" rx="0.875001" ry="0.875" fill="#161C35"/>
</symbol><symbol id="icon-minus" viewBox="0 0 14 2">
<line y1="1" x2="14" y2="1" stroke="#000000" stroke-width="2"/>
</symbol><symbol id="icon-page-arrow" viewBox="0 0 10 18">
<path d="M0 9L9.75 0.339745L9.75 17.6603L0 9Z" fill="#1D2E5B"/>
</symbol><symbol id="icon-plus-more" viewBox="0 0 18 18">
<rect y="8.30762" width="18" height="1.38461" rx="0.692307" fill="#1D2E5B"/>
<rect x="8.30774" y="18" width="18" height="1.38461" rx="0.692307" transform="rotate(-90 8.30774 18)" fill="#1D2E5B"/>
</symbol><symbol id="icon-plus" viewBox="0 0 14 14">
<line y1="6.69995" x2="14" y2="6.69995" stroke="#000000" stroke-width="2"/>
<line x1="6.7" y1="14" x2="6.7" stroke="#000000" stroke-width="2"/>
</symbol><symbol id="icon-remove-country" viewBox="0 0 9 9">
<path d="M21 2.75L3 19.25" stroke="black" stroke-width="1.7" stroke-linecap="round" stroke-linejoin="round"/>
<path d="M3 2.75L21 19.25" stroke="black" stroke-width="1.7" stroke-linecap="round" stroke-linejoin="round"/>
</symbol><symbol id="icon-special-arrow" viewBox="0 0 8 11">
<path d="M3.64645 10.3536C3.84171 10.5488 4.15829 10.5488 4.35355 10.3536L7.53553 7.17157C7.7308 6.97631 7.7308 6.65973 7.53553 6.46447C7.34027 6.2692 7.02369 6.2692 6.82843 6.46447L4 9.29289L1.17157 6.46447C0.976311 6.2692 0.659728 6.2692 0.464466 6.46447C0.269204 6.65973 0.269204 6.97631 0.464466 7.17157L3.64645 10.3536ZM3.5 0L3.5 10H4.5L4.5 0L3.5 0Z" fill="#CBCED9"/>
</symbol><symbol id="icon-user" viewBox="0 0 14 14">
<path opacity="0.1" d="M4.375 3.92978C4.375 5.45321 5.55275 6.69294 7 6.69294C8.44725 6.69294 9.625 5.45321 9.625 3.92978C9.625 2.40636 8.44725 1.16663 7 1.16663C5.55275 1.16663 4.375 2.40636 4.375 3.92978ZM11.6667 12.8333H12.25V12.2193C12.25 9.8497 10.4177 7.92101 8.16667 7.92101H5.83333C3.58167 7.92101 1.75 9.8497 1.75 12.2193V12.8333H11.6667Z" fill="#192144"/>
</symbol><symbol id="icon-vkontakte" viewBox="0 0 31 16">
<path d="M23.9461 15.7775C23.2083 15.761 22.4891 15.5431 21.8661 15.1475C21.2157 14.7079 20.6184 14.1945 20.0861 13.6175C19.6461 13.1775 18.9161 12.4375 18.6361 12.4375C18.3561 12.4375 18.1561 13.3575 18.1661 14.0075C18.1703 14.4562 18.0021 14.8894 17.6961 15.2175C17.3481 15.5018 16.9234 15.6758 16.4761 15.7175H14.5561C11.7965 15.6568 9.15414 14.59 7.12606 12.7175C3.44606 9.34753 0.286063 2.90753 0.156063 2.62753C0.0320633 2.39361 -0.0198655 2.12821 0.00683068 1.86481C0.0335268 1.6014 0.137651 1.35181 0.306063 1.14753C0.687199 0.829675 1.16985 0.659328 1.66606 0.667532H5.74606H5.86606C6.20364 0.716784 6.52722 0.835995 6.81606 1.01753C7.08788 1.1998 7.30552 1.45198 7.44606 1.74753C7.87724 2.6706 8.37175 3.56273 8.92606 4.41753C10.2361 6.41753 10.8161 6.87753 11.0261 6.97753C11.2597 6.03979 11.324 5.06788 11.2161 4.10753C11.2511 3.67014 11.179 3.2308 11.0061 2.82753C10.7865 2.65191 10.5169 2.55038 10.2361 2.53753L9.50606 1.84753C9.36606 1.18753 10.0961 0.617532 10.6061 0.397532C11.6238 0.0786297 12.6916 -0.0501836 13.7561 0.017532H14.4661C15.1881 -0.00127074 15.9099 0.0658674 16.6161 0.217532C18.3161 0.577532 18.2561 1.94753 18.1861 3.52753C18.1861 3.98753 18.1361 4.52753 18.1361 5.14753C18.1361 5.29753 18.1361 5.45753 18.1361 5.62753C18.0967 6.06289 18.1271 6.50174 18.2261 6.92753C19.0586 6.23108 19.7597 5.39116 20.2961 4.44753C20.875 3.55527 21.3832 2.61908 21.8161 1.64753C21.9479 1.34025 22.1739 1.08272 22.4614 0.912012C22.7489 0.741299 23.0832 0.666204 23.4161 0.697532H27.6961C27.8224 0.685471 27.9497 0.685471 28.0761 0.697532C29.0761 0.697532 29.6661 0.987532 29.9061 1.54753C30.1461 2.10753 30.0761 3.20753 27.5461 6.15753L26.5461 7.28753C26.0616 7.75797 25.6443 8.29301 25.3061 8.87753C25.6848 9.30811 26.1147 9.69093 26.5861 10.0175C27.7353 10.8835 28.7468 11.9186 29.5861 13.0875C29.7829 13.3148 29.9117 13.593 29.9576 13.8901C30.0036 14.1873 29.965 14.4914 29.8461 14.7675C29.6365 15.0734 29.3561 15.3241 29.0288 15.4982C28.7014 15.6723 28.3368 15.7647 27.9661 15.7675L24.1761 15.8175L23.9461 15.7775ZM18.6361 10.9375C19.5361 10.9375 20.3161 11.7275 21.1461 12.5575C21.5944 13.0471 22.0977 13.4833 22.6461 13.8575C23.0607 14.1333 23.5481 14.2795 24.0461 14.2775H24.1461L27.9461 14.2275C28.1335 14.2168 28.317 14.1692 28.4861 14.0875L28.3861 13.9275C27.6291 12.8959 26.7263 11.9797 25.7061 11.2075C24.5161 10.2075 23.9061 9.73753 23.8361 8.96753C23.7661 8.19753 24.3261 7.52753 25.4461 6.25753L26.4461 5.14753C27.2903 4.28639 27.9834 3.28908 28.4961 2.19753C28.2729 2.1843 28.0492 2.1843 27.8261 2.19753H23.4561C23.377 2.17986 23.2951 2.17986 23.2161 2.19753C22.7532 3.25898 22.2012 4.27929 21.5661 5.24753C19.6761 8.06753 18.7861 8.44753 18.1561 8.44753C17.9607 8.44753 17.7684 8.39945 17.5961 8.30753C16.5961 7.73753 16.5961 6.46753 16.6561 5.54753C16.6561 5.39753 16.6561 5.24753 16.6561 5.11753C16.6561 4.46753 16.6561 3.90753 16.7061 3.42753C16.7861 1.74753 16.7061 1.73753 16.3261 1.64753C15.7138 1.52655 15.09 1.4729 14.4661 1.48753H13.7761C13.1411 1.47441 12.5061 1.50784 11.8761 1.58753C11.9715 1.65784 12.0558 1.74212 12.1261 1.83753C12.5385 2.48787 12.7442 3.24794 12.7161 4.01753C12.8461 5.66753 12.7761 7.81753 11.7161 8.33753C11.5284 8.42537 11.3233 8.4698 11.1161 8.46753C10.1861 8.46753 9.26606 7.58753 7.69606 5.20753C7.09358 4.29624 6.5556 3.34392 6.08606 2.35753L6.00606 2.25753C5.90508 2.20606 5.79736 2.16903 5.68606 2.14753H1.68606H1.61606C2.20606 3.36753 5.00606 8.76753 8.13606 11.5975C9.89364 13.2122 12.1708 14.1451 14.5561 14.2275H16.4061C16.5004 14.2074 16.5914 14.1737 16.6761 14.1275C16.6761 14.1275 16.6761 14.1275 16.6761 14.0375C16.6761 13.7675 16.6761 11.4375 18.2561 11.0375C18.3784 10.9894 18.5059 10.9558 18.6361 10.9375Z" fill="#192144"/>
</symbol><symbol id="icon_bicycle" viewBox="0 0 25 24">
<path opacity="0.15" d="M18.3075 21C17.4664 21 16.6442 20.7471 15.9449 20.2732C15.2456 19.7994 14.7005 19.1258 14.3786 18.3378C14.0568 17.5498 13.9726 16.6827 14.1366 15.8462C14.3007 15.0096 14.7057 14.2412 15.3005 13.6381C15.8952 13.035 16.6529 12.6243 17.4779 12.4579C18.3028 12.2915 19.1578 12.3769 19.9349 12.7033C20.7119 13.0297 21.3761 13.5824 21.8434 14.2916C22.3106 15.0008 22.5601 15.8346 22.5601 16.6875C22.5588 17.8309 22.1104 18.927 21.3132 19.7355C20.5159 20.544 19.435 20.9988 18.3075 21ZM18.3075 13.875C17.759 13.875 17.2228 14.04 16.7667 14.349C16.3106 14.658 15.9551 15.0973 15.7452 15.6112C15.5353 16.1251 15.4804 16.6906 15.5874 17.2362C15.6944 17.7818 15.9585 18.2829 16.3464 18.6762C16.7343 19.0696 17.2284 19.3374 17.7664 19.446C18.3044 19.5545 18.8621 19.4988 19.3688 19.2859C19.8756 19.073 20.3088 18.7126 20.6135 18.25C20.9182 17.7875 21.0809 17.2438 21.0809 16.6875C21.08 15.9418 20.7876 15.227 20.2676 14.6997C19.7477 14.1725 19.0428 13.8759 18.3075 13.875Z" fill="#1D2E5B"/>
<path opacity="0.15" d="M6.10449 21C5.26342 21 4.44123 20.7471 3.7419 20.2732C3.04257 19.7994 2.4975 19.1258 2.17564 18.3378C1.85377 17.5498 1.76956 16.6827 1.93364 15.8462C2.09773 15.0096 2.50275 14.2412 3.09748 13.6381C3.69221 13.035 4.44994 12.6243 5.27486 12.4579C6.09978 12.2915 6.95482 12.3769 7.73188 12.7033C8.50893 13.0297 9.17309 13.5824 9.64037 14.2916C10.1076 15.0008 10.3571 15.8346 10.3571 16.6875C10.3558 17.8309 9.9074 18.927 9.11016 19.7355C8.31291 20.544 7.23197 20.9988 6.10449 21ZM6.10449 13.875C5.55596 13.875 5.01975 14.04 4.56367 14.349C4.10758 14.658 3.75211 15.0973 3.5422 15.6112C3.33228 16.1251 3.27736 16.6906 3.38437 17.2362C3.49139 17.7818 3.75553 18.2829 4.1434 18.6762C4.53126 19.0696 5.02544 19.3374 5.56343 19.446C6.10142 19.5545 6.65906 19.4988 7.16583 19.2859C7.67261 19.073 8.10575 18.7126 8.4105 18.25C8.71525 17.7875 8.8779 17.2438 8.8779 16.6875C8.87705 15.9418 8.58458 15.227 8.06465 14.6997C7.54472 14.1725 6.83979 13.8759 6.10449 13.875Z" fill="#1D2E5B"/>
<path opacity="0.15" d="M15.1644 6.00005C15.3592 6.00073 15.5522 5.96225 15.7323 5.88681C15.9123 5.81138 16.0759 5.7005 16.2134 5.56058C16.351 5.42065 16.4598 5.25447 16.5336 5.07163C16.6074 4.88879 16.6448 4.69293 16.6435 4.49536C16.6457 4.29878 16.6092 4.10374 16.5361 3.92164C16.4631 3.73954 16.3549 3.57403 16.2181 3.4348C16.0812 3.29558 15.9183 3.18542 15.739 3.11077C15.5597 3.03612 15.3675 2.99848 15.1736 3.00005C14.9794 2.99943 14.7869 3.03762 14.6072 3.11243C14.4275 3.18725 14.2641 3.29722 14.1263 3.43607C13.9885 3.57493 13.8791 3.73994 13.8042 3.92169C13.7293 4.10344 13.6904 4.29838 13.6898 4.49536C13.6892 4.69234 13.7269 4.88752 13.8007 5.06974C13.8744 5.25197 13.9829 5.41767 14.1198 5.55739C14.2567 5.69712 14.4194 5.80812 14.5987 5.88407C14.7779 5.96002 14.9701 5.99943 15.1644 6.00005Z" fill="#1D2E5B"/>
<path opacity="0.15" d="M17.3622 9.00003H15.3395C15.3063 9.00004 15.2737 8.99099 15.2452 8.97384C15.2167 8.95668 15.1932 8.93205 15.1773 8.90253L13.7101 6.17581C13.6068 5.97318 13.4578 5.79807 13.2753 5.66467C13.0928 5.53127 12.8818 5.44333 12.6596 5.40795C12.4373 5.37258 12.21 5.39077 11.996 5.46106C11.7819 5.53135 11.5872 5.65175 11.4276 5.81253L8.19843 9.11253C7.92715 9.39333 7.77316 9.76945 7.76855 10.1625C7.76855 10.9782 8.35097 11.2688 8.62369 11.4328C9.94106 12.2025 10.8688 12.7655 11.3777 13.0782C11.4047 13.0949 11.4271 13.1183 11.4427 13.1463C11.4582 13.1743 11.4664 13.2059 11.4664 13.238V16.478C11.4664 16.8816 11.7724 17.228 12.1704 17.2482C12.2703 17.253 12.3702 17.2373 12.464 17.2019C12.5577 17.1666 12.6434 17.1123 12.7159 17.0423C12.7883 16.9724 12.8461 16.8883 12.8855 16.7951C12.925 16.7018 12.9455 16.6015 12.9456 16.5V12.4688C12.9457 12.3497 12.9178 12.2324 12.8642 12.1264C12.8107 12.0204 12.7331 11.9289 12.6377 11.8594L10.9275 10.6121C10.906 10.5965 10.8881 10.5764 10.8749 10.5532C10.8617 10.53 10.8536 10.5043 10.851 10.4776C10.8485 10.451 10.8516 10.4241 10.8602 10.3988C10.8687 10.3734 10.8825 10.3503 10.9007 10.3308L12.842 8.23128C12.862 8.20968 12.8866 8.19316 12.914 8.18307C12.9414 8.17297 12.9708 8.1696 12.9997 8.17321C13.0287 8.17682 13.0563 8.18731 13.0805 8.20384C13.1047 8.22037 13.1247 8.24246 13.1388 8.26831L14.1474 10.1143C14.2115 10.2313 14.3053 10.3288 14.4191 10.3966C14.5329 10.4644 14.6625 10.5001 14.7945 10.5H17.383C17.4832 10.5002 17.5824 10.4796 17.6745 10.4397C17.7667 10.3998 17.8498 10.3413 17.919 10.2678C17.9882 10.1942 18.0419 10.1073 18.0769 10.012C18.1119 9.91685 18.1274 9.81542 18.1226 9.71394C18.1032 9.31035 17.7602 9.00003 17.3622 9.00003Z" fill="#1D2E5B"/>
</symbol><symbol id="icon_mail" viewBox="0 0 47 50">
<path fill-rule="evenodd" clip-rule="evenodd" d="M37.2786 32.9327L28.6178 25L37.2786 17.0673L36.0976 15.8053L23.5 27.3438L10.9024 15.8053L9.72137 17.0673L18.3822 25L9.72137 32.9327L10.9024 34.1947L19.6617 26.1719L23.5 29.6875L27.3383 26.1719L36.0976 34.1947L37.2786 32.9327ZM8.15193 12.5C6.5339 12.5 5.22223 13.8977 5.22223 15.6157V34.3843C5.22223 36.105 6.52326 37.5 8.15193 37.5H38.8481C40.4661 37.5 41.7778 36.1023 41.7778 34.3843V15.6157C41.7778 13.895 40.4768 12.5 38.8481 12.5H8.15193Z" fill="#FFD74B"/>
</symbol><symbol id="icon_plane"><g clip-path="url(#clip0)"><path d="M16.783 2.093c-.728.173-1.46.347-1.733.824l-2.107 4.199L1.63 9.806l-.458 1.341 8.658.82-1.47 3.634-3.283.78-.824 1.43 2.369.256.27 1.169c.12.414.545.69.908.604l1.095-.26 1.268 2.163.825-1.428-.81-3.505 2.377-3.03 4.536 7.961.914-1.038L15.213 8.63l2.563-3.895c.276-.477.096-1.255-.085-2.036-.09-.387-.545-.691-.908-.605z" fill="#101D41"/></g></symbol><symbol id="icon_plane2" viewBox="0 0 18 17">
<g clip-path="url(#clip0)">
<path d="M13.9146 0.927695C13.3249 1.05994 12.7325 1.19281 12.5121 1.55688L10.8065 4.7625L1.64828 6.81634L1.27723 7.84059L8.28531 8.46568L7.09628 11.2408L4.43851 11.8368L3.77123 12.9275L5.68861 13.1239L5.90725 14.0159C6.00521 14.3321 6.34902 14.5432 6.64248 14.4774L7.5284 14.2787L8.55537 15.9305L9.22266 14.8398L8.56673 12.1638L10.491 9.85016L14.1627 15.9287L14.9031 15.1363L12.6435 5.91794L14.7185 2.94416C14.9416 2.57946 14.7961 1.98572 14.6499 1.38919C14.5774 1.09371 14.2081 0.861883 13.9146 0.927695Z" fill="#1D2E5B"/>
</g>

</symbol><symbol id="icon_return-arrow" viewBox="0 0 32 16">
<path fill-rule="evenodd" clip-rule="evenodd" d="M4 16H28C30.2091 16 32 14.2091 32 12V7C32 4.79086 30.2091 3 28 3H4V5H28C29.1046 5 30 5.89543 30 7V12C30 13.1046 29.1046 14 28 14H4V16Z" fill="white"/>
<path d="M0 4L9 0.535898V7.4641L0 4Z" fill="white"/>
</symbol><symbol id="icon_run" viewBox="0 0 21 24">
<path d="M14.9758 5.75992C15.9264 5.75992 16.697 4.90031 16.697 3.83992C16.697 2.77954 15.9264 1.91992 14.9758 1.91992C14.0252 1.91992 13.2546 2.77954 13.2546 3.83992C13.2546 4.90031 14.0252 5.75992 14.9758 5.75992Z" fill="#1D2E5B"/>
<path d="M13.9233 10.5302C14.1209 10.8586 14.4043 11.1113 14.735 11.2538C15.0657 11.3964 15.4277 11.4219 15.7719 11.327L18.6256 10.5312L18.21 8.66881L15.3562 9.46465L14.1695 7.48033C13.9159 7.05655 13.5224 6.76184 13.0748 6.66049L9.76493 5.92129C9.39465 5.83839 9.01021 5.89379 8.67097 6.07893C8.33173 6.26406 8.05657 6.56863 7.88797 6.94561L6.4611 10.129L8.00071 10.9882L9.42758 7.80385L11.1204 8.18209L6.74338 16.32H2.92749V18.24H6.74338C7.34407 18.24 7.90949 17.8829 8.2193 17.3078L9.86993 14.2397L14.3184 15.2323L15.8812 20.4634L17.5129 19.8557L15.9509 14.6256C15.8545 14.3045 15.684 14.0174 15.4564 13.7933C15.2289 13.5691 14.9524 13.4158 14.6548 13.3488L12.0395 12.7661L13.5645 9.93025L13.9233 10.5302Z" fill="#1D2E5B"/>
</symbol><symbol id="icon_telephone" viewBox="0 0 36 34">
<path fill-rule="evenodd" clip-rule="evenodd" d="M18 2.17236C12.4071 2.17236 6.80078 3.1177 4.76656 5.00191C3.07881 6.56509 2.5162 9.32664 2.32655 11.0751C2.32655 11.0751 2.30042 11.2479 2.30042 11.3222C2.30042 12.0079 2.88902 12.5578 3.60866 12.5578C3.69369 12.5578 6.84016 12.3168 8.73714 12.1686C8.78279 12.1623 8.8288 12.1562 8.87445 12.1439C9.58099 12.1255 10.1502 11.5817 10.1502 10.9083L10.1566 8.47406C10.1566 7.72035 10.8044 7.11481 11.6025 7.11481H24.3974C25.1957 7.11481 25.8436 7.72028 25.8436 8.47406L25.85 10.9083C25.85 11.5817 26.4192 12.1255 27.1257 12.1439C27.171 12.1563 27.217 12.1623 27.2632 12.1686C29.1603 12.3167 32.3067 12.5578 32.3915 12.5578C33.1108 12.5578 33.6998 12.0079 33.6998 11.3222C33.6998 11.2479 33.6737 11.0751 33.6737 11.0751C33.4839 9.32664 32.922 6.56516 31.2341 5.00191C29.1993 3.1177 23.5929 2.17236 18 2.17236ZM18 18.2355C16.5543 18.2355 15.3834 19.3413 15.3834 20.7067C15.3834 22.0721 16.5543 23.1778 18 23.1778C19.4457 23.1778 20.6166 22.0721 20.6166 20.7067C20.6166 19.3413 19.4457 18.2355 18 18.2355ZM16.0376 12.6751V11.1306C16.0376 10.2781 15.3048 9.58613 14.4023 9.58613C13.4997 9.58613 12.7669 10.2782 12.7669 11.1306V12.6751L3.94202 21.5779C3.3339 22.1402 2.95439 22.9245 2.95439 23.7897V26.2671C2.95439 27.6325 4.1254 28.7383 5.57102 28.7383H6.22521V30.2829C6.22521 31.1354 6.95802 31.8273 7.86062 31.8273C8.76321 31.8273 9.49595 31.1354 9.49595 30.2829V28.7383H26.5041V30.2829C26.5041 31.1354 27.2366 31.8273 28.1396 31.8273C29.0422 31.8273 29.7748 31.1354 29.7748 30.2829V28.7383H30.4289C31.8746 28.7383 33.0455 27.6325 33.0455 26.2671V23.7897C33.0455 22.9245 32.6661 22.1401 32.0579 21.5779L23.2333 12.6751V11.1306C23.2333 10.2781 22.5005 9.58613 21.5979 9.58613C20.6953 9.58613 19.9626 10.2782 19.9626 11.1306V12.6751H16.0376ZM18 15.7643C20.8914 15.7643 23.2333 17.976 23.2333 20.7067C23.2333 23.4375 20.8915 25.6494 18 25.6494C15.1086 25.6494 12.7668 23.4375 12.7668 20.7067C12.7668 17.976 15.1086 15.7643 18 15.7643Z" fill="#FFD74B"/>
</symbol></svg>
