<svg width="17" height="19" viewBox="0 0 17 19" fill="none" xmlns="http://www.w3.org/2000/svg">
<path d="M16.0173 0.950195L9.99464 14.877C9.38328 16.3892 8.62322 17.4543 7.71446 18.0721C6.82221 18.69 5.73996 18.999 4.46768 18.999C3.77371 18.999 3.08801 18.8933 2.41056 18.6819C1.73312 18.4705 1.1796 18.1778 0.75 17.8039L2.16272 15.0965C2.46013 15.3567 2.79886 15.5599 3.17889 15.7063C3.57544 15.8526 3.96373 15.9258 4.34376 15.9258C4.8725 15.9258 5.30209 15.7957 5.63255 15.5356C5.96301 15.2917 6.26043 14.877 6.5248 14.2917L6.57437 14.1697L8.53235 9.85264L12.2996 0.950195H16.0173Z" fill="#FE7865"/>
</svg>
