<svg width="12" height="15" viewBox="0 0 12 15" fill="none" xmlns="http://www.w3.org/2000/svg">
<path d="M12 0.55957L7.35231 11.3068C6.88053 12.4738 6.294 13.2957 5.59271 13.7725C4.90416 14.2493 4.06899 14.4877 3.08718 14.4877C2.55165 14.4877 2.02249 14.4062 1.49971 14.2431C0.976931 14.0799 0.549781 13.8541 0.218262 13.5655L1.30845 11.4762C1.53796 11.677 1.79936 11.8339 2.09262 11.9468C2.39864 12.0597 2.69829 12.1162 2.99155 12.1162C3.39958 12.1162 3.73109 12.0158 3.98611 11.815C4.24112 11.6268 4.47064 11.3068 4.67465 10.8551L4.7129 10.761L6.22387 7.42955L9.13104 0.55957H12Z" fill="#FE7865"/>
</svg>
